<svg width="26" height="26" viewBox="0 0 26 26" fill="none" xmlns="http://www.w3.org/2000/svg">
<path d="M24.7 1.73333H21.6667V0.433333C21.6667 0.1937 21.473 0 21.2334 0H18.2C17.9604 0 17.7667 0.1937 17.7667 0.433333V1.73333H8.23337V0.433333C8.23337 0.1937 8.03967 0 7.80003 0H4.7667C4.52707 0 4.33337 0.1937 4.33337 0.433333V1.73333H1.30003C1.0604 1.73333 0.866699 1.92703 0.866699 2.16667V6.93333V25.5667C0.866699 25.8063 1.0604 26 1.30003 26H24.7C24.9397 26 25.1334 25.8063 25.1334 25.5667V6.93333V2.16667C25.1334 1.92703 24.9397 1.73333 24.7 1.73333ZM18.6334 0.866667H20.8V2.16667V3.46667H18.6334V2.16667V0.866667ZM5.20003 0.866667H7.3667V2.16667V3.46667H5.20003V2.16667V0.866667ZM1.73337 2.6H4.33337V3.9C4.33337 4.13963 4.52707 4.33333 4.7667 4.33333H7.80003C8.03967 4.33333 8.23337 4.13963 8.23337 3.9V2.6H17.7667V3.9C17.7667 4.13963 17.9604 4.33333 18.2 4.33333H21.2334C21.473 4.33333 21.6667 4.13963 21.6667 3.9V2.6H24.2667V6.5H1.73337V2.6ZM1.73337 25.1333V7.36667H24.2667V25.1333H1.73337Z" fill="#564A75"/>
<path d="M16.4666 9.9668H13.4333H12.5666H9.53327H8.6666H4.7666V13.8668V14.7335V17.7668V18.6335V22.5335H8.6666H9.53327H12.5666H13.4333H16.4666H17.3333H21.2333V18.6335V17.7668V14.7335V13.8668V9.9668H17.3333H16.4666ZM13.4333 10.8335H16.4666V13.8668H13.4333V10.8335ZM16.4666 17.7668H13.4333V14.7335H16.4666V17.7668ZM9.53327 14.7335H12.5666V17.7668H9.53327V14.7335ZM9.53327 10.8335H12.5666V13.8668H9.53327V10.8335ZM5.63327 10.8335H8.6666V13.8668H5.63327V10.8335ZM5.63327 14.7335H8.6666V17.7668H5.63327V14.7335ZM8.6666 21.6668H5.63327V18.6335H8.6666V21.6668ZM12.5666 21.6668H9.53327V18.6335H12.5666V21.6668ZM16.4666 21.6668H13.4333V18.6335H16.4666V21.6668ZM20.3666 21.6668H17.3333V18.6335H20.3666V21.6668ZM20.3666 17.7668H17.3333V14.7335H20.3666V17.7668ZM20.3666 10.8335V13.8668H17.3333V10.8335H20.3666Z" fill="#564A75"/>
</svg>
