<svg width="12" height="357" viewBox="0 0 12 357" fill="none" xmlns="http://www.w3.org/2000/svg">
<g opacity="0.88">
<mask id="mask0" mask-type="alpha" maskUnits="userSpaceOnUse" x="0" y="0" width="12" height="357">
<rect width="12" height="357" fill="#C4C4C4"/>
</mask>
<g mask="url(#mask0)">
<line y1="-0.15" x2="74.2076" y2="-0.15" transform="matrix(0.384744 -0.923023 0.477642 0.878554 9.70654 247.381)" stroke="#645F74" stroke-width="0.3"/>
<line y1="-0.15" x2="74.2076" y2="-0.15" transform="matrix(0.384744 -0.923023 0.477642 0.878554 5.0835 112.031)" stroke="#645F74" stroke-width="0.3"/>
<line y1="-0.15" x2="74.2076" y2="-0.15" transform="matrix(0.384744 -0.923023 0.477642 0.878554 4.48926 237.785)" stroke="#645F74" stroke-width="0.3"/>
<line y1="-0.15" x2="74.2076" y2="-0.15" transform="matrix(0.384744 -0.923023 0.477642 0.878554 -0.133301 102.435)" stroke="#645F74" stroke-width="0.3"/>
<line y1="-0.15" x2="74.2076" y2="-0.15" transform="matrix(0.384744 -0.923023 0.477642 0.878554 9.1123 372.843)" stroke="#645F74" stroke-width="0.3"/>
<line y1="-0.15" x2="74.2076" y2="-0.15" transform="matrix(0.384744 -0.923023 0.477642 0.878554 6.22852 240.983)" stroke="#645F74" stroke-width="0.3"/>
<line y1="-0.15" x2="74.2076" y2="-0.15" transform="matrix(0.384744 -0.923023 0.477642 0.878554 1.60547 105.634)" stroke="#645F74" stroke-width="0.3"/>
<line y1="-0.15" x2="74.2076" y2="-0.15" transform="matrix(0.384744 -0.923023 0.477642 0.878554 10.8516 376.042)" stroke="#645F74" stroke-width="0.3"/>
<line y1="-0.15" x2="74.2076" y2="-0.15" transform="matrix(0.384744 -0.923023 0.477642 0.878554 1.01172 231.388)" stroke="#645F74" stroke-width="0.3"/>
<line y1="-0.15" x2="74.2076" y2="-0.15" transform="matrix(0.384744 -0.923023 0.477642 0.878554 -3.61133 96.0381)" stroke="#645F74" stroke-width="0.3"/>
<line y1="-0.15" x2="74.2076" y2="-0.15" transform="matrix(0.384744 -0.923023 0.477642 0.878554 5.63477 366.445)" stroke="#645F74" stroke-width="0.3"/>
<line y1="-0.15" x2="74.2076" y2="-0.15" transform="matrix(0.384744 -0.923023 0.477642 0.878554 7.96777 244.184)" stroke="#645F74" stroke-width="0.3"/>
<line y1="-0.15" x2="74.2076" y2="-0.15" transform="matrix(0.384744 -0.923023 0.477642 0.878554 3.34473 108.833)" stroke="#645F74" stroke-width="0.3"/>
<line y1="-0.15" x2="74.2076" y2="-0.15" transform="matrix(0.384744 -0.923023 0.477642 0.878554 2.75049 234.586)" stroke="#645F74" stroke-width="0.3"/>
<line y1="-0.15" x2="74.2076" y2="-0.15" transform="matrix(0.384744 -0.923023 0.477642 0.878554 -1.87256 99.2373)" stroke="#645F74" stroke-width="0.3"/>
<line y1="-0.15" x2="74.2076" y2="-0.15" transform="matrix(0.384744 -0.923023 0.477642 0.878554 7.37305 369.645)" stroke="#645F74" stroke-width="0.3"/>
<line y1="-0.15" x2="74.2076" y2="-0.15" transform="matrix(0.384744 -0.923023 0.477642 0.878554 12.04 124.825)" stroke="#645F74" stroke-width="0.3"/>
<line y1="-0.15" x2="74.2076" y2="-0.15" transform="matrix(0.384744 -0.923023 0.477642 0.878554 10.3008 121.627)" stroke="#645F74" stroke-width="0.3"/>
<line y1="-0.15" x2="74.2076" y2="-0.15" transform="matrix(0.384744 -0.923023 0.477642 0.878554 8.56152 118.429)" stroke="#645F74" stroke-width="0.3"/>
<line y1="-0.15" x2="74.2076" y2="-0.15" transform="matrix(0.384744 -0.923023 0.477642 0.878554 11.4458 250.579)" stroke="#645F74" stroke-width="0.3"/>
<line y1="-0.15" x2="74.2076" y2="-0.15" transform="matrix(0.384744 -0.923023 0.477642 0.878554 6.82275 115.231)" stroke="#645F74" stroke-width="0.3"/>
<line y1="-0.15" x2="68.2661" y2="-0.15" transform="matrix(-0.477642 -0.878554 0.384744 -0.923023 22.8838 24.3447)" stroke="#645F74" stroke-width="0.3"/>
<line y1="-0.15" x2="68.2661" y2="-0.15" transform="matrix(-0.477642 -0.878554 0.384744 -0.923023 32.1294 294.752)" stroke="#645F74" stroke-width="0.3"/>
<line y1="-0.15" x2="68.2661" y2="-0.15" transform="matrix(-0.477642 -0.878554 0.384744 -0.923023 27.5063 159.402)" stroke="#645F74" stroke-width="0.3"/>
<line y1="-0.15" x2="74.2076" y2="-0.15" transform="matrix(0.384744 -0.923023 0.477642 0.878554 -25.3169 140.758)" stroke="#645F74" stroke-width="0.3"/>
<line y1="-0.15" x2="74.2076" y2="-0.15" transform="matrix(0.384744 -0.923023 0.477642 0.878554 -16.0708 411.163)" stroke="#645F74" stroke-width="0.3"/>
<line y1="-0.15" x2="74.2076" y2="-0.15" transform="matrix(0.384744 -0.923023 0.477642 0.878554 -20.6938 275.814)" stroke="#645F74" stroke-width="0.3"/>
<line y1="-0.15" x2="68.2661" y2="-0.15" transform="matrix(-0.477642 -0.878554 0.384744 -0.923023 12.2246 49.916)" stroke="#645F74" stroke-width="0.3"/>
<line y1="-0.15" x2="68.2661" y2="-0.15" transform="matrix(-0.477642 -0.878554 0.384744 -0.923023 21.4707 320.323)" stroke="#645F74" stroke-width="0.3"/>
<line y1="-0.15" x2="68.2661" y2="-0.15" transform="matrix(-0.477642 -0.878554 0.384744 -0.923023 16.8477 184.975)" stroke="#645F74" stroke-width="0.3"/>
<line y1="-0.15" x2="74.2076" y2="-0.15" transform="matrix(0.384744 -0.923023 0.477642 0.878554 -28.2441 388.772)" stroke="#645F74" stroke-width="0.3"/>
<line y1="-0.15" x2="68.2661" y2="-0.15" transform="matrix(-0.477642 -0.878554 0.384744 -0.923023 7.65625 60.875)" stroke="#645F74" stroke-width="0.3"/>
<line y1="-0.15" x2="68.2661" y2="-0.15" transform="matrix(-0.477642 -0.878554 0.384744 -0.923023 16.9023 331.282)" stroke="#645F74" stroke-width="0.3"/>
<line y1="-0.15" x2="68.2661" y2="-0.15" transform="matrix(-0.477642 -0.878554 0.384744 -0.923023 12.2793 195.933)" stroke="#645F74" stroke-width="0.3"/>
<line y1="-0.15" x2="68.2661" y2="-0.15" transform="matrix(-0.477642 -0.878554 0.384744 -0.923023 21.3608 27.998)" stroke="#645F74" stroke-width="0.3"/>
<line y1="-0.15" x2="68.2661" y2="-0.15" transform="matrix(-0.477642 -0.878554 0.384744 -0.923023 30.6069 298.406)" stroke="#645F74" stroke-width="0.3"/>
<line y1="-0.15" x2="68.2661" y2="-0.15" transform="matrix(-0.477642 -0.878554 0.384744 -0.923023 25.9839 163.056)" stroke="#645F74" stroke-width="0.3"/>
<line y1="-0.15" x2="74.2076" y2="-0.15" transform="matrix(0.384744 -0.923023 0.477642 0.878554 -27.0557 137.556)" stroke="#645F74" stroke-width="0.3"/>
<line y1="-0.15" x2="74.2076" y2="-0.15" transform="matrix(0.384744 -0.923023 0.477642 0.878554 -17.8096 407.965)" stroke="#645F74" stroke-width="0.3"/>
<line y1="-0.15" x2="74.2076" y2="-0.15" transform="matrix(0.384744 -0.923023 0.477642 0.878554 -22.4326 272.615)" stroke="#645F74" stroke-width="0.3"/>
<line y1="-0.15" x2="68.2661" y2="-0.15" transform="matrix(-0.477642 -0.878554 0.384744 -0.923023 19.8384 31.6504)" stroke="#645F74" stroke-width="0.3"/>
<line y1="-0.15" x2="68.2661" y2="-0.15" transform="matrix(-0.477642 -0.878554 0.384744 -0.923023 29.084 302.059)" stroke="#645F74" stroke-width="0.3"/>
<line y1="-0.15" x2="68.2661" y2="-0.15" transform="matrix(-0.477642 -0.878554 0.384744 -0.923023 24.4609 166.709)" stroke="#645F74" stroke-width="0.3"/>
<line y1="-0.15" x2="74.2076" y2="-0.15" transform="matrix(0.384744 -0.923023 0.477642 0.878554 -19.5488 404.766)" stroke="#645F74" stroke-width="0.3"/>
<line y1="-0.15" x2="74.2076" y2="-0.15" transform="matrix(0.384744 -0.923023 0.477642 0.878554 -24.1719 269.416)" stroke="#645F74" stroke-width="0.3"/>
<line y1="-0.15" x2="68.2661" y2="-0.15" transform="matrix(-0.477642 -0.878554 0.384744 -0.923023 9.1792 57.2217)" stroke="#645F74" stroke-width="0.3"/>
<line y1="-0.15" x2="68.2661" y2="-0.15" transform="matrix(-0.477642 -0.878554 0.384744 -0.923023 18.4248 327.63)" stroke="#645F74" stroke-width="0.3"/>
<line y1="-0.15" x2="68.2661" y2="-0.15" transform="matrix(-0.477642 -0.878554 0.384744 -0.923023 13.8022 192.279)" stroke="#645F74" stroke-width="0.3"/>
<line y1="-0.15" x2="68.2661" y2="-0.15" transform="matrix(-0.477642 -0.878554 0.384744 -0.923023 4.61084 68.1826)" stroke="#645F74" stroke-width="0.3"/>
<line y1="-0.15" x2="68.2661" y2="-0.15" transform="matrix(-0.477642 -0.878554 0.384744 -0.923023 13.8569 338.588)" stroke="#645F74" stroke-width="0.3"/>
<line y1="-0.15" x2="68.2661" y2="-0.15" transform="matrix(-0.477642 -0.878554 0.384744 -0.923023 9.23389 203.239)" stroke="#645F74" stroke-width="0.3"/>
<line y1="-0.15" x2="68.2661" y2="-0.15" transform="matrix(-0.477642 -0.878554 0.384744 -0.923023 10.7021 53.5693)" stroke="#645F74" stroke-width="0.3"/>
<line y1="-0.15" x2="68.2661" y2="-0.15" transform="matrix(-0.477642 -0.878554 0.384744 -0.923023 19.9478 323.978)" stroke="#645F74" stroke-width="0.3"/>
<line y1="-0.15" x2="68.2661" y2="-0.15" transform="matrix(-0.477642 -0.878554 0.384744 -0.923023 15.3247 188.626)" stroke="#645F74" stroke-width="0.3"/>
<line y1="-0.15" x2="68.2661" y2="-0.15" transform="matrix(-0.477642 -0.878554 0.384744 -0.923023 6.13379 64.5293)" stroke="#645F74" stroke-width="0.3"/>
<line y1="-0.15" x2="68.2661" y2="-0.15" transform="matrix(-0.477642 -0.878554 0.384744 -0.923023 15.3799 334.935)" stroke="#645F74" stroke-width="0.3"/>
<line y1="-0.15" x2="68.2661" y2="-0.15" transform="matrix(-0.477642 -0.878554 0.384744 -0.923023 10.7568 199.586)" stroke="#645F74" stroke-width="0.3"/>
<line y1="-0.15" x2="68.2661" y2="-0.15" transform="matrix(-0.477642 -0.878554 0.384744 -0.923023 18.3154 35.3037)" stroke="#645F74" stroke-width="0.3"/>
<line y1="-0.15" x2="68.2661" y2="-0.15" transform="matrix(-0.477642 -0.878554 0.384744 -0.923023 27.5615 305.711)" stroke="#645F74" stroke-width="0.3"/>
<line y1="-0.15" x2="68.2661" y2="-0.15" transform="matrix(-0.477642 -0.878554 0.384744 -0.923023 22.9385 170.362)" stroke="#645F74" stroke-width="0.3"/>
<line y1="-0.15" x2="74.2076" y2="-0.15" transform="matrix(0.384744 -0.923023 0.477642 0.878554 -21.2881 401.567)" stroke="#645F74" stroke-width="0.3"/>
<line y1="-0.15" x2="74.2076" y2="-0.15" transform="matrix(0.384744 -0.923023 0.477642 0.878554 -25.9111 266.219)" stroke="#645F74" stroke-width="0.3"/>
<line y1="-0.15" x2="68.2661" y2="-0.15" transform="matrix(-0.477642 -0.878554 0.384744 -0.923023 16.793 38.957)" stroke="#645F74" stroke-width="0.3"/>
<line y1="-0.15" x2="68.2661" y2="-0.15" transform="matrix(-0.477642 -0.878554 0.384744 -0.923023 26.0386 309.363)" stroke="#645F74" stroke-width="0.3"/>
<line y1="-0.15" x2="68.2661" y2="-0.15" transform="matrix(-0.477642 -0.878554 0.384744 -0.923023 21.4155 174.015)" stroke="#645F74" stroke-width="0.3"/>
<line y1="-0.15" x2="74.2076" y2="-0.15" transform="matrix(0.384744 -0.923023 0.477642 0.878554 -23.0273 398.368)" stroke="#645F74" stroke-width="0.3"/>
<line y1="-0.15" x2="74.2076" y2="-0.15" transform="matrix(0.384744 -0.923023 0.477642 0.878554 -27.6499 263.021)" stroke="#645F74" stroke-width="0.3"/>
<line y1="-0.15" x2="68.2661" y2="-0.15" transform="matrix(-0.477642 -0.878554 0.384744 -0.923023 15.27 42.6084)" stroke="#645F74" stroke-width="0.3"/>
<line y1="-0.15" x2="68.2661" y2="-0.15" transform="matrix(-0.477642 -0.878554 0.384744 -0.923023 24.5156 313.018)" stroke="#645F74" stroke-width="0.3"/>
<line y1="-0.15" x2="68.2661" y2="-0.15" transform="matrix(-0.477642 -0.878554 0.384744 -0.923023 19.8931 177.667)" stroke="#645F74" stroke-width="0.3"/>
<line y1="-0.15" x2="74.2076" y2="-0.15" transform="matrix(0.384744 -0.923023 0.477642 0.878554 -24.7661 395.171)" stroke="#645F74" stroke-width="0.3"/>
<line y1="-0.15" x2="68.2661" y2="-0.15" transform="matrix(-0.477642 -0.878554 0.384744 -0.923023 13.7471 46.2617)" stroke="#645F74" stroke-width="0.3"/>
<line y1="-0.15" x2="68.2661" y2="-0.15" transform="matrix(-0.477642 -0.878554 0.384744 -0.923023 22.9932 316.671)" stroke="#645F74" stroke-width="0.3"/>
<line y1="-0.15" x2="68.2661" y2="-0.15" transform="matrix(-0.477642 -0.878554 0.384744 -0.923023 18.3701 181.321)" stroke="#645F74" stroke-width="0.3"/>
<line y1="-0.15" x2="74.2076" y2="-0.15" transform="matrix(0.384744 -0.923023 0.477642 0.878554 -26.5049 391.971)" stroke="#645F74" stroke-width="0.3"/>
</g>
</g>
</svg>
