<svg width="70" height="70" viewBox="0 0 70 70" fill="none" xmlns="http://www.w3.org/2000/svg">
<g clip-path="url(#clip0)">
<path d="M66.3737 13.1855C56.4226 11.7078 56.4226 11.7078 50.0047 5.85425C41.0629 -2.30407 27.7637 -1.89198 19.0663 6.81805C15.4622 10.4279 11.387 12.3303 6.24121 12.8015C5.70405 12.85 5.16979 12.9373 4.55797 13.0371C4.26805 13.0837 3.96068 13.1341 3.62423 13.1845C3.17336 13.2524 2.85532 13.6635 2.90381 14.1163C3.10064 15.9731 3.27711 17.8183 3.45164 19.6528C3.91123 24.4505 4.34271 28.9824 5.10192 33.5755C5.43256 35.57 6.72214 37.613 8.8902 39.6045C10.9283 41.7997 15.9432 42.7985 22.0944 43.2115L14.5498 67.2056C14.1736 68.3061 14.7622 69.5093 15.8637 69.8865C16.0867 69.9631 16.3174 70 16.5463 70C16.8643 70 17.1804 69.9272 17.4732 69.7837C17.9813 69.5346 18.3604 69.106 18.5388 68.5853L23.7437 54.2825C23.7437 54.2825 23.7456 54.2835 23.7466 54.2835C23.8329 54.2835 23.9211 54.2651 24.0036 54.2253L35.3781 48.7974L45.9595 53.8462C46.008 53.8705 46.0603 53.8714 46.1117 53.8811L51.4591 68.5756C51.7597 69.4502 52.581 70 53.4565 70C53.6834 70 53.9132 69.9622 54.1401 69.8865C55.2396 69.5084 55.8292 68.307 55.4578 67.2201L47.9152 43.2387C51.4494 43.0884 55.005 42.6356 58.4568 41.1986C62.2781 39.6075 64.355 37.292 64.8068 34.1165C65.47 29.4614 65.9733 24.6822 66.459 20.0601C66.6665 18.0927 66.874 16.1137 67.0961 14.1231C67.1446 13.6674 66.8265 13.2534 66.3737 13.1855ZM17.4121 68.1868C17.2492 68.6658 16.7208 68.9208 16.2476 68.756H16.2467C16.0169 68.6774 15.8297 68.5116 15.7221 68.2915C15.6145 68.0704 15.597 67.8203 15.6823 67.5759L23.321 43.2823C24.0947 43.324 24.8781 43.3608 25.6791 43.386C25.7712 43.4597 25.8691 43.5305 25.9389 43.612C25.9922 43.673 26.0601 43.7622 26.1086 43.8573C26.0805 43.9814 26.0882 44.1055 26.1367 44.218L17.4121 68.1868ZM24.2944 52.7641L27.1645 44.8792L33.9915 48.1371L24.2944 52.7641ZM35.3762 47.4768L27.2818 43.6149C27.2615 43.5509 27.2353 43.4888 27.2081 43.4268C28.5045 43.4549 29.8241 43.4685 31.1574 43.4685C33.5174 43.4685 35.9104 43.4326 38.2627 43.3841C39.5949 43.356 40.7604 43.3327 41.6903 43.3279L42.8334 43.324C42.7248 43.5383 42.6647 43.7671 42.6531 44.0047L35.3762 47.4768ZM36.7598 48.1371L42.945 45.1856L45.5445 52.3288L36.7598 48.1371ZM54.3207 67.5905C54.4846 68.0704 54.2286 68.594 53.7506 68.7569C53.2745 68.9208 52.748 68.6648 52.5802 68.1771L43.846 44.1705C43.7791 43.9756 43.9507 43.738 44.0593 43.612C44.1524 43.5053 44.2745 43.4074 44.4006 43.3162C45.1569 43.3123 45.9151 43.3036 46.6763 43.2852L54.3207 67.5905ZM64.7632 19.8807C64.2561 24.7006 63.7771 29.251 63.1187 33.8761C62.7522 36.4397 61.0622 38.2665 57.7985 39.6239C53.0629 41.5961 48.1906 41.6058 43.0312 41.6184L41.6806 41.6213C40.7439 41.6272 39.5697 41.6514 38.2268 41.6795C30.2333 41.8385 13.6093 42.1847 10.0896 38.3974C8.16105 36.622 7.04793 34.9077 6.78226 33.2982C6.03178 28.7614 5.60224 24.2585 5.14749 19.4899C4.9972 17.9153 4.84594 16.3329 4.68208 14.7408C4.73347 14.733 4.78389 14.7243 4.83334 14.7165C5.40153 14.6234 5.897 14.541 6.39732 14.4964C7.53274 14.3927 8.60804 14.2065 9.65328 13.9709C9.73279 14.702 9.81424 15.468 9.90247 16.296C10.0634 17.8028 10.238 19.4414 10.4212 21.0956C10.4552 21.401 10.7131 21.627 11.0127 21.627C11.035 21.627 11.0573 21.625 11.0796 21.6231C11.4073 21.5872 11.6429 21.2924 11.6071 20.9647C11.4228 19.3105 11.2493 17.6758 11.0893 16.1709C10.9943 15.2789 10.9051 14.4567 10.8217 13.679C14.3928 12.6697 17.4693 10.8303 20.2744 8.02037C28.4434 -0.164132 40.4666 -0.54713 48.8586 7.11087C53.6223 11.4567 55.1126 12.7637 59.2315 13.7023C59.1646 14.2996 59.0997 14.9298 59.0347 15.595C51.8702 14.5148 50.698 14.1658 46.2853 10.2165C46.1098 10.0585 45.8383 10.073 45.6841 10.2495C45.527 10.425 45.5416 10.6946 45.7171 10.8507C50.2335 14.892 51.5202 15.3225 58.9552 16.4453C58.931 16.7013 58.9077 16.9427 58.8835 17.2045C58.8544 17.5323 59.0958 17.8222 59.4245 17.8513C59.442 17.8522 59.4594 17.8532 59.4788 17.8532C59.7842 17.8532 60.0431 17.6195 60.0712 17.3102C60.1789 16.1011 60.2894 14.9793 60.4048 13.9486C61.737 14.2055 63.3165 14.4518 65.312 14.7495C65.1219 16.4686 64.9426 18.179 64.7632 19.8807Z" fill="#504B75"/>
<path d="M17.3947 34.1819C17.7243 34.1819 17.99 33.924 17.99 33.5944C18.2799 32.7314 24.212 31.1916 34.999 31.1916C45.7869 31.1916 51.718 32.7324 52.005 33.5769C52.005 33.9066 52.2716 34.1732 52.6013 34.1732C52.931 34.1732 53.1976 33.9066 53.1976 33.5769C53.1976 30.0407 35.7417 29.999 34.998 29.999C34.2553 29.999 16.7993 30.0407 16.7993 33.5769C16.7993 33.9066 17.066 34.1819 17.3947 34.1819Z" fill="#504B75"/>
<path d="M59.228 20.1335C58.9003 20.1093 58.6104 20.3469 58.5842 20.6765L58.5696 20.8443C58.2429 24.7169 57.9064 28.7204 57.4778 31.5924C57.1879 33.5365 55.8441 34.9221 53.2484 35.9557C49.4979 37.4489 45.4682 37.4557 41.5713 37.4625L40.5096 37.4654C39.7717 37.4693 38.8448 37.4877 37.785 37.508C31.4796 37.636 18.3501 37.892 15.5537 35.0171C14.0266 33.6761 13.1452 32.3768 12.9338 31.1571C12.8601 30.7421 12.7894 30.2941 12.7176 29.8248C12.6682 29.4971 12.3588 29.2721 12.0389 29.3245C11.7141 29.374 11.4891 29.6774 11.5386 30.0032C11.6103 30.4822 11.684 30.937 11.7567 31.3617C12.0156 32.8568 13.0289 34.3878 14.7325 35.882C17.0576 38.276 24.3801 38.7666 32.1962 38.7666C34.0588 38.7666 35.9505 38.7385 37.8083 38.7016C38.8613 38.6813 39.7814 38.6628 40.5154 38.659L41.5733 38.6561C45.5817 38.6493 49.7277 38.6405 53.6896 37.064C56.6779 35.8733 58.303 34.1425 58.6559 31.7689C59.0903 28.8591 59.4297 24.8352 59.7564 20.9451L59.771 20.7774C59.7991 20.4487 59.5548 20.1607 59.228 20.1335Z" fill="#504B75"/>
<path d="M40.3063 6.49035C41.5203 7.22531 42.679 8.09215 43.7504 9.06952C43.8318 9.14515 43.9346 9.18102 44.0364 9.18102C44.1518 9.18102 44.2682 9.13351 44.3506 9.0414C44.5096 8.86784 44.498 8.59925 44.3225 8.44024C43.2113 7.42602 42.008 6.52428 40.7475 5.76314C40.5468 5.64096 40.285 5.70496 40.1628 5.90664C40.0406 6.10735 40.1056 6.36914 40.3063 6.49035Z" fill="#504B75"/>
<path d="M49.5834 56.7471C49.6465 56.9197 49.8103 57.0263 49.9839 57.0263C50.0333 57.0263 50.0828 57.0186 50.1313 57.0011C50.3514 56.9187 50.4658 56.6744 50.3843 56.4543L49.5534 54.1922C49.4719 53.9711 49.2237 53.8586 49.0065 53.9391C48.7854 54.0205 48.672 54.2649 48.7534 54.4859L49.5834 56.7471Z" fill="#504B75"/>
<path d="M45.7207 44.9855C45.4997 45.0669 45.3852 45.3122 45.4667 45.5333L47.6444 51.4673C47.7075 51.6399 47.8713 51.7466 48.0449 51.7466C48.0944 51.7466 48.1438 51.7388 48.1913 51.7204C48.4124 51.6399 48.5258 51.3946 48.4454 51.1735L46.2676 45.2395C46.1874 45.0184 45.9391 44.9059 45.7207 44.9855Z" fill="#504B75"/>
</g>
<defs>
<clipPath id="clip0">
<rect width="70" height="70" fill="white"/>
</clipPath>
</defs>
</svg>
