<svg width="93" height="56" viewBox="0 0 93 56" fill="none" xmlns="http://www.w3.org/2000/svg">
<path d="M91.1265 32.5071C91.1164 32.4697 91.102 32.4323 91.0948 32.3949C91.0027 32.3963 90.9148 32.4021 90.8241 32.4035C90.5894 32.3359 90.3475 32.2885 90.094 32.2885H88.2925V13.1806C88.2925 6.0612 83.9797 0.267578 78.6789 0.267578H14.3225C9.02179 0.267578 4.7089 6.05976 4.7089 13.1806V32.2871H2.90742C1.30467 32.2871 0 33.7222 0 35.4866V49.0323C0 50.7967 1.30323 52.2318 2.90742 52.2318H4.67578C5.00122 53.9675 6.20941 55.2645 7.6552 55.2645H12.1827C13.6284 55.2645 14.8352 53.9675 15.1621 52.2318H77.8379C78.1648 53.9675 79.3716 55.2645 80.8174 55.2645H85.3448C86.7906 55.2645 87.9973 53.9675 88.3228 52.2318H90.0926C91.6953 52.2318 93 50.7967 93 49.0323V35.4866C92.9986 34.1248 92.2181 32.9672 91.1265 32.5071ZM90.0926 33.6215C90.6672 33.6215 91.1668 33.9954 91.4405 34.5447C91.4117 34.5361 91.3886 34.526 91.3584 34.5174C90.4872 34.2758 89.4244 34.237 88.4985 34.2183C84.7573 34.1449 81.15 34.2715 77.7846 34.5936C77.2821 34.641 76.7824 34.6942 76.2813 34.746C74.4078 34.943 72.4695 35.1515 70.3527 35.1041C67.8326 35.0523 64.7236 34.526 63.5068 33.6215H70.5283C70.897 33.6445 71.2642 33.656 71.6271 33.656C71.9568 33.656 72.278 33.6359 72.6034 33.6215H90.0926ZM7.66672 32.2871C7.82944 28.3369 10.3884 25.1849 13.5219 25.1849H79.4796C82.6131 25.1849 85.172 28.3369 85.3347 32.2871H7.66672ZM38.9168 38.9981C38.8246 39.5258 38.6994 40.0737 38.2731 40.4692C37.7446 40.9581 37.0318 40.9868 36.535 40.9322C35.5054 40.8114 34.4297 40.1974 33.9228 39.4396C33.4908 38.7953 33.2575 38.0605 33.0314 37.3502C32.7996 36.624 32.5605 35.8719 32.1098 35.1947C31.6792 34.5476 31.0917 34.04 30.4264 33.6215H39.0565C39.2595 35.4103 39.2293 37.2107 38.9168 38.9981ZM19.629 24.4228V10.8295C19.629 10.4528 19.7774 10.1077 20.0366 9.88478C20.2051 9.73955 20.4052 9.66333 20.6111 9.66333C20.6515 9.66333 20.6932 9.66621 20.7335 9.67196C23.052 10.0171 27.5262 10.5951 31.4344 10.5951C35.3427 10.5951 39.8168 10.0171 42.1353 9.67196C42.3815 9.63745 42.6306 9.70935 42.8322 9.88478C43.0914 10.1077 43.2398 10.4513 43.2398 10.8295V24.4228H43.2383H19.629ZM49.7617 24.4228V10.2831C49.7617 10.0588 49.8524 9.84883 50.0036 9.71941C50.0727 9.66046 50.1793 9.59575 50.3204 9.59575C50.3434 9.59575 50.3679 9.59719 50.3924 9.6015C52.335 9.9006 57.3132 10.5951 61.5685 10.5951C65.8223 10.5951 70.8005 9.89916 72.7431 9.6015C72.9217 9.57274 73.0513 9.65039 73.1319 9.71941C73.2831 9.84883 73.3738 10.0602 73.3738 10.2831V24.4228H73.3724H49.7617ZM14.3225 1.60202H78.676C83.2409 1.60202 86.9533 6.796 86.9533 13.1806V32.2871H86.0965C85.9295 27.917 83.0292 24.4228 79.4781 24.4228H74.1356V10.2831C74.1356 9.83301 73.9499 9.416 73.6273 9.13991C73.3407 8.89689 72.9836 8.79479 72.6265 8.84656C70.7011 9.14279 65.7676 9.83158 61.567 9.83158C57.365 9.83158 52.4329 9.14279 50.5076 8.84656C50.1505 8.79048 49.7919 8.89545 49.5068 9.13991C49.1842 9.416 48.9985 9.83301 48.9985 10.2831V24.4228H44.003V10.8295C44.003 10.2313 43.7582 9.67627 43.3305 9.30815C42.9561 8.98604 42.4938 8.84944 42.0229 8.91846C39.7247 9.25926 35.2937 9.83158 31.4344 9.83158C27.5751 9.83158 23.1427 9.25926 20.8459 8.91846C20.3764 8.85087 19.9127 8.98604 19.5383 9.30815C19.1106 9.67627 18.8658 10.2313 18.8658 10.8295V24.4228H13.5219C9.97077 24.4228 7.07055 27.917 6.9035 32.2871H6.04668V13.1806H6.04524C6.04524 6.796 9.75764 1.60202 14.3225 1.60202ZM2.90742 33.6229H11.6506C11.4349 33.6844 11.2204 33.7455 11.0047 33.8099C9.74756 34.1794 8.44722 34.5605 7.11231 34.7273C5.15387 34.9703 3.36247 34.6612 2.19029 33.8803C2.18021 33.8731 2.17156 33.8645 2.16148 33.8573C2.38469 33.7121 2.63669 33.6229 2.90742 33.6229ZM12.1827 53.9301H7.6552C6.92942 53.9301 6.29437 53.2125 6.03948 52.2318H13.7984C13.5449 53.2125 12.9084 53.9301 12.1827 53.9301ZM39.7189 50.8974H37.4192C37.975 50.5638 38.5395 50.2431 39.127 49.9598C39.3618 49.8491 39.5303 49.8203 39.6267 49.8779C39.6858 49.9124 39.7117 49.9799 39.7232 50.1237C39.7419 50.3811 39.7247 50.64 39.7189 50.8974ZM44.7705 50.8959H40.0227C40.0285 50.6299 40.0472 50.3653 40.0256 50.1007C40.0184 49.9958 39.9997 49.7456 39.7823 49.6161C39.4943 49.445 39.1184 49.6262 38.9946 49.6852C38.2458 50.0447 37.5358 50.4631 36.8403 50.8959H29.872C32.5389 49.5471 35.0402 47.9826 37.2968 46.1938C38.6115 45.1527 40.1509 44.077 41.7465 44.4624C42.6508 44.681 43.3852 45.3612 43.9324 46.4813C44.6179 47.8863 44.8756 49.3947 44.7705 50.8959ZM45.0715 50.9003C45.1766 49.3516 44.9102 47.7985 44.2046 46.3519C43.6156 45.1469 42.8121 44.4121 41.817 44.1705C40.0832 43.7506 38.4762 44.8737 37.1067 45.9594C34.7076 47.8604 32.0277 49.5025 29.1649 50.9003H5.91852V50.8672C5.835 50.8902 5.74572 50.8859 5.65788 50.9003H4.93786C4.81834 50.8816 4.69594 50.8787 4.58073 50.8413V50.9003H2.90742C2.04196 50.8974 1.33779 50.0619 1.33779 49.0323V44.4538C6.27709 44.4653 11.1286 44.3402 15.8317 44.0353L15.9584 44.0267C17.6922 43.9146 19.4836 43.7952 21.334 44.0742C22.9699 44.3186 24.2386 44.9456 24.3538 45.3554C24.3682 45.4086 24.3711 45.4791 24.2602 45.5725C23.9952 45.7926 23.3501 45.9263 22.764 46.0341C17.1479 47.0724 10.1493 47.3959 3.05286 46.9458C2.96214 46.9386 2.8959 47.0048 2.89014 47.0882C2.88438 47.1716 2.94918 47.2449 3.0327 47.2507C5.12651 47.383 7.21023 47.4491 9.25507 47.4491C14.1627 47.4491 18.837 47.0709 22.8173 46.3347C23.4682 46.2139 24.132 46.0744 24.4531 45.8069C24.6317 45.6588 24.6994 45.469 24.6447 45.2749C24.4589 44.6134 22.8374 43.9922 21.3758 43.7736C19.4951 43.4932 17.6836 43.6111 15.9354 43.7247L15.8086 43.7319C11.1113 44.0368 6.26701 44.1604 1.33347 44.1504V42.606C1.70356 42.6405 2.07796 42.6822 2.43077 42.6966C6.16333 42.8461 9.7706 42.7944 13.1518 42.5398C13.6558 42.5025 14.1584 42.4593 14.6595 42.4176C16.5373 42.2594 18.4756 42.0941 20.5967 42.1804C23.1758 42.2853 26.3727 42.8979 27.4916 43.8671C27.9121 44.2323 27.9467 44.5904 27.9294 44.8607C27.8199 46.6467 25.0421 48.1408 20.6788 48.7591C16.2594 49.3861 10.325 49.0841 5.19419 47.9682C5.11355 47.9495 5.03146 48.0027 5.01274 48.0847C4.99546 48.1667 5.0473 48.2486 5.12939 48.2659C8.51202 49.0007 12.2417 49.3846 15.6661 49.3846C17.4676 49.3846 19.1855 49.2782 20.722 49.0596C25.2365 48.4197 28.1151 46.8178 28.2347 44.878C28.2534 44.5645 28.2188 44.0929 27.6918 43.6356C26.5196 42.6189 23.2421 41.9805 20.6097 41.8741C18.477 41.7878 16.5229 41.9532 14.635 42.1128C14.1339 42.1559 13.6342 42.1976 13.1302 42.235C9.76196 42.4881 6.16621 42.5413 2.44373 42.3917C2.07076 42.3774 1.70356 42.34 1.33491 42.3069V38.3711C1.88932 38.3438 2.44517 38.3136 2.99382 38.2834L18.9004 37.3761C21.0792 37.2524 23.5474 37.11 25.7837 37.632C28.203 38.1957 30.0549 39.5848 30.5042 41.1695C30.5229 41.237 30.5848 41.2802 30.651 41.2802C30.6654 41.2802 30.6784 41.2787 30.6928 41.2744C30.7749 41.2514 30.821 41.168 30.7979 41.0861C30.2176 39.0355 27.8631 37.8031 25.8529 37.3344C23.5718 36.8023 21.0792 36.9461 18.8831 37.0712L2.97654 37.9786C2.43221 38.0102 1.88356 38.0375 1.33347 38.0663V35.488C1.33347 34.9056 1.56387 34.3923 1.91524 34.05C1.9498 34.0773 1.97716 34.109 2.01604 34.1334C3.70376 35.2594 5.95452 35.1788 7.14543 35.0293C8.50482 34.861 9.81668 34.4757 11.0853 34.1018C11.467 33.9896 11.8486 33.8775 12.2316 33.771C12.4332 33.715 12.6377 33.6718 12.8407 33.6215H29.8331C30.6453 34.0558 31.3538 34.618 31.8491 35.3629C32.2754 36.0057 32.5072 36.7347 32.7333 37.4422C32.9666 38.1727 33.2056 38.9291 33.6621 39.6092C34.2165 40.4375 35.3815 41.1062 36.4932 41.2356C36.63 41.2514 36.764 41.2586 36.8936 41.2586C37.5301 41.2586 38.0715 41.0659 38.4762 40.692C38.973 40.2319 39.117 39.6035 39.2135 39.0513C39.5288 37.2466 39.5634 35.429 39.3618 33.6229H43.8215C43.0598 34.6597 42.5068 35.7943 42.2073 36.9835C42.1871 37.0655 42.2361 37.1489 42.3182 37.169C42.3311 37.1719 42.3426 37.1733 42.3556 37.1733C42.4233 37.1733 42.4866 37.1273 42.5039 37.0583C42.8121 35.836 43.4054 34.677 44.2161 33.6229H47.9429C46.3589 35.1371 46.2538 37.3315 46.4006 39.4956C46.5648 41.91 46.8168 44.3503 47.1495 46.7488C47.3439 48.148 47.6117 49.5457 47.9919 50.9003H45.0715ZM85.3448 53.9301H80.8174C80.0916 53.9301 79.4652 53.2111 79.2117 52.2318H86.962C86.7085 53.2125 86.072 53.9301 85.3448 53.9301ZM90.0926 50.8974H88.9046C89.5742 50.3639 90.5376 50.0073 91.4318 49.9915C91.1568 50.5321 90.6614 50.8974 90.0926 50.8974ZM91.6637 38.41C90.4598 38.4704 89.2602 38.5509 88.0737 38.6415L72.1988 39.8724C69.9178 40.0507 67.5619 40.2333 65.3082 39.7574C62.8703 39.2426 60.9737 37.8923 60.4755 36.3163C60.451 36.2357 60.3646 36.1912 60.284 36.2171C60.2033 36.2415 60.1587 36.3278 60.1846 36.4083C60.8312 38.4445 63.2231 39.6279 65.2463 40.055C67.5417 40.5411 70.0286 40.3469 72.2233 40.1772L88.0981 38.9463C89.2761 38.8543 90.4684 38.7752 91.6637 38.7134V42.5485C90.1358 42.1573 88.5604 42.235 87.6071 42.3486C86.1123 42.5298 84.6781 42.9281 83.2928 43.312C82.8752 43.4285 82.4561 43.5436 82.0356 43.6543C78.5263 44.5775 74.8427 45.1167 71.0885 45.2591C68.6073 45.3497 62.5592 45.2447 60.163 42.2264C59.6547 41.5865 59.358 40.8574 59.0715 40.1514C58.7748 39.4223 58.4681 38.6674 57.9266 37.9901C57.2599 37.1561 55.9221 36.4989 54.6736 36.3911C53.7981 36.3163 53.0694 36.5118 52.5683 36.9533C52.0412 37.4192 51.9131 38.0534 51.8339 38.6113C51.4911 41.053 51.6697 43.5191 52.3652 45.9392C52.3883 46.0198 52.4732 46.0629 52.5539 46.0442C52.6345 46.0212 52.682 45.9364 52.659 45.8558C51.9764 43.4774 51.8008 41.0544 52.1363 38.6544C52.2112 38.1281 52.3206 37.5803 52.7699 37.1834C53.3229 36.6945 54.0976 36.6484 54.6463 36.6959C55.8184 36.7966 57.0684 37.4077 57.6876 38.1813C58.2002 38.8241 58.4983 39.5575 58.7878 40.2678C59.083 40.994 59.3868 41.7432 59.9225 42.4176C62.3158 45.4331 67.9478 45.6847 71.0986 45.5654C74.8744 45.4216 78.5795 44.878 82.1105 43.9505C82.5324 43.8398 82.9515 43.7233 83.3705 43.6068C84.7458 43.2258 86.1671 42.8318 87.6402 42.6535C89.1148 42.4737 90.4929 42.5801 91.6608 42.9008V49.0323C91.6608 49.2595 91.6219 49.4752 91.5585 49.678C90.4195 49.6679 89.1666 50.1539 88.4236 50.8974H48.3188C47.9285 49.5327 47.652 48.1206 47.4547 46.7042C47.1221 44.3129 46.8715 41.8798 46.7088 39.4726C46.572 37.4537 46.572 35.1731 48.3202 33.6733C48.3418 33.6546 48.3677 33.6402 48.3893 33.6215H63.0459C63.0978 33.6776 63.141 33.7351 63.2101 33.7912C64.4125 34.7819 67.7102 35.3557 70.3455 35.4089C72.4882 35.452 74.4294 35.2479 76.3129 35.0494C76.8126 34.9962 77.3123 34.9444 77.8134 34.897C81.1673 34.5763 84.763 34.4527 88.4913 34.5231C89.3999 34.5418 90.4382 34.5806 91.2763 34.8122C91.3886 34.8424 91.4837 34.8769 91.5787 34.9099C91.6291 35.0926 91.6637 35.2852 91.6637 35.488V38.41Z" fill="#504B75"/>
<path d="M56.645 49.2423C56.694 49.3098 56.7876 49.3257 56.8581 49.2796C56.9272 49.2307 56.9431 49.1358 56.8956 49.0668C55.8703 47.6159 55.2366 45.9709 55.0653 44.31C55.0264 43.929 55.1027 43.7032 55.3043 43.5997C55.8299 43.3279 56.4376 44.09 56.5528 44.2468C58.7316 47.1989 62.9566 49.3487 68.1451 50.1453C70.1194 50.4473 72.1152 50.558 74.114 50.558C76.8169 50.558 79.5228 50.3567 82.1753 50.1597C82.2588 50.1525 82.3222 50.0806 82.3164 49.9957C82.3092 49.9123 82.2271 49.8534 82.1522 49.8548C77.5542 50.1985 72.8021 50.5522 68.1897 49.8433C63.0819 49.0611 58.9289 46.9545 56.7976 44.067C56.3887 43.5149 55.7479 43.036 55.1632 43.3294C54.6808 43.5752 54.7398 44.1533 54.76 44.3431C54.9386 46.0543 55.5895 47.7482 56.645 49.2423Z" fill="#504B75"/>
</svg>
