<svg width="93" height="87" viewBox="0 0 93 87" fill="none" xmlns="http://www.w3.org/2000/svg">
<path d="M92.5219 81.5018C91.8893 80.4382 90.7295 79.7215 90.0699 79.9523C90.0496 79.9604 90.0307 79.9496 90.0077 79.9415C90.7011 78.7172 90.128 76.9693 89.1792 76.0272C88.3655 75.2227 87.372 75.0432 86.5799 75.5521C86.5677 75.5453 86.538 75.5048 86.5461 75.4441C86.8435 73.2062 85.8432 72.3802 85.2201 72.0859C84.1631 71.5892 82.6722 71.9091 81.6463 72.8296C81.6395 72.8067 81.6341 72.7824 81.6327 72.7622C81.5287 70.9994 80.6014 70.1868 79.7688 70.0141C78.8578 69.8224 77.9373 70.2989 77.3101 71.272C77.2317 71.133 77.1479 70.971 77.0911 70.8604C76.9695 70.6242 76.8627 70.419 76.7708 70.3002C76.5275 69.9857 76.2436 69.7306 75.9368 69.5052V15.6165H77.306L77.9035 15.0199V11.4336L77.306 10.8371H71.4709C71.5168 10.7453 71.5479 10.6467 71.5479 10.5374V7.89325C71.5479 7.51668 71.2424 7.21163 70.8653 7.21163H68.512V1.40501C68.512 1.02844 68.2066 0.723392 67.8294 0.723392H64.7287C64.3516 0.723392 64.0461 1.02844 64.0461 1.40501V10.5361C64.0461 10.6454 64.0772 10.7439 64.1231 10.8357H62.7106C62.7566 10.7439 62.7877 10.6454 62.7877 10.5361V7.98234C62.7877 7.68404 62.5971 7.43164 62.3295 7.33851C62.3511 7.27372 62.3619 7.20353 62.3619 7.13065V4.74429C62.3619 4.65386 62.3443 4.56882 62.3132 4.48919C62.4687 4.36366 62.5687 4.172 62.5687 3.95739V1.40367C62.5687 1.02709 62.2632 0.722042 61.8861 0.722042H55.5954C55.2183 0.722042 54.9128 1.02709 54.9128 1.40367V10.5347C54.9128 10.644 54.9439 10.7426 54.9899 10.8344H51.6648C51.7107 10.7426 51.7418 10.644 51.7418 10.5347V4.6768H53.307C53.6842 4.6768 53.9896 4.37176 53.9896 3.99518V1.40232C53.9896 1.02574 53.6842 0.720693 53.307 0.720693H45.7377C45.3605 0.720693 45.0551 1.02574 45.0551 1.40232V3.99518C45.0551 4.37176 45.3605 4.6768 45.7377 4.6768H47.3029V10.5347C47.3029 10.644 47.334 10.7426 47.3799 10.8344H41.9259C42.4125 10.5955 42.868 10.3161 43.2546 9.95702C43.7804 9.46571 44.194 8.87047 44.4887 8.1848C44.782 7.50048 44.9321 6.73787 44.9321 5.91722C44.9321 5.09523 44.782 4.33667 44.486 3.66314C44.1927 2.99097 43.775 2.40653 43.2479 1.92872C42.7234 1.45631 42.1043 1.09052 41.4055 0.83947C40.7162 0.589767 39.9606 0.462891 39.159 0.462891C38.3589 0.462891 37.6033 0.589767 36.9112 0.83947C36.2097 1.09187 35.592 1.459 35.0756 1.93007C34.5539 2.40653 34.1403 2.98827 33.8443 3.66179C33.5496 4.33397 33.3996 5.09118 33.3996 5.91587C33.3996 6.73787 33.5482 7.50048 33.8416 8.18345C34.1362 8.86912 34.5485 9.46436 35.0675 9.95162C35.45 10.312 35.9056 10.5928 36.3935 10.8317H32.0506C32.0965 10.7399 32.1276 10.6413 32.1276 10.532V1.40097C32.1276 1.02439 31.8221 0.719343 31.445 0.719343H28.3578C27.9807 0.719343 27.6752 1.02439 27.6752 1.40097V3.81971H26.5344V1.40636C26.5344 1.02978 26.2289 0.724742 25.8518 0.724742H22.7903C22.4131 0.724742 22.1077 1.02978 22.1077 1.40636V10.5374C22.1077 10.6467 22.1387 10.7453 22.1847 10.8371H14.9695L14.3747 11.4336V15.0199L14.9722 15.6165H16.3414V70.2449C16.3036 70.2665 16.2576 70.2719 16.2292 70.3083C16.1373 70.4271 16.0319 70.6323 15.9089 70.8685C15.8521 70.9791 15.7683 71.1411 15.6899 71.2788C15.0627 70.307 14.1409 69.8292 13.2312 70.0208C12.3972 70.1936 11.4713 71.0061 11.3672 72.7662C11.3659 72.7878 11.3618 72.8121 11.3537 72.835C10.3278 71.9145 8.83961 71.5892 7.7799 72.0913C7.15677 72.3842 6.15653 73.2116 6.4539 75.4482C6.45931 75.494 6.44444 75.5278 6.45661 75.5467C5.61181 75.0513 4.62508 75.2335 3.81949 76.0312C2.87196 76.972 2.29885 78.7172 2.99361 79.9442C2.97334 79.9523 2.95441 79.9577 2.94901 79.9577C2.26641 79.7161 1.11073 80.4382 0.478143 81.5018C0.0307388 82.2522 -0.743772 84.2323 1.71898 86.3879L1.94471 86.4729H14.2166H27.3589H65.6438H78.063H91.0566L91.2824 86.3879C93.7438 84.2323 92.9693 82.2522 92.5219 81.5018ZM67.8308 1.40636V7.89325H70.8667V10.5374H64.7314V1.40636H67.8308V1.40636ZM55.5941 1.40636H55.5954H61.8861V3.96009H58.488V4.74699H61.6793V7.13335H58.488V7.98504H62.1037V10.5388H55.5941V1.40636V1.40636ZM45.7377 3.99923V1.40636H53.307V3.99923H51.0592V10.5388H47.9855V3.99923H45.7377V3.99923ZM35.5379 9.46166C35.0851 9.03514 34.7296 8.52089 34.4714 7.92025C34.2133 7.31826 34.0849 6.65149 34.0849 5.92127C34.0849 5.18971 34.2133 4.52968 34.4714 3.94119C34.7296 3.35135 35.0851 2.85195 35.5379 2.43892C35.9894 2.02725 36.526 1.70871 37.145 1.486C37.7655 1.26194 38.4372 1.14991 39.1604 1.14991C39.8849 1.14991 40.5553 1.26194 41.1757 1.486C41.7962 1.70871 42.3341 2.02725 42.791 2.43892C43.2465 2.85195 43.6047 3.3527 43.8615 3.94119C44.1197 4.53103 44.2495 5.18971 44.2495 5.92127C44.2495 6.65149 44.1197 7.31826 43.8615 7.92025C43.6047 8.52089 43.2465 9.03514 42.791 9.46166C42.3341 9.88683 41.7962 10.2148 41.1757 10.4483C40.5567 10.6805 39.8849 10.7966 39.1604 10.7966C38.4372 10.7966 37.7655 10.6805 37.145 10.4483C36.526 10.2162 35.9894 9.88683 35.5379 9.46166ZM22.7903 1.40636H22.7916H25.8532V4.50134H28.3592V1.40636H31.4464V10.5374H28.3713V7.06856H25.8653V10.5374H22.7903V1.40636V1.40636ZM27.7671 10.8384H26.4722C26.5182 10.7466 26.5493 10.6467 26.5493 10.5388V7.75153H27.6901V10.5388C27.6901 10.6481 27.7212 10.7466 27.7671 10.8384ZM15.5683 14.4247V12.0302H76.7086V14.4247H15.5683V14.4247ZM53.5693 53.45H38.7089L38.1115 54.0465V82.0174H17.5363V15.6165H74.7419V82.0174H54.1667V54.0465L53.5693 53.45ZM52.9718 54.6431V81.7609H39.3064V54.6431H52.9718ZM13.6205 82.7341V85.8021H2.07447C0.178071 84.0771 0.624124 82.5883 1.06612 81.8473C1.61761 80.9214 2.50295 80.5286 2.72057 80.5974C2.99767 80.6946 3.3856 80.5786 3.57754 80.3464C3.74244 80.148 3.75596 79.8902 3.61403 79.658C3.05309 78.7415 3.51806 77.2906 4.30474 76.5104C4.64806 76.1703 5.33877 75.6682 6.13355 76.1419C6.34036 76.2648 6.58907 76.2567 6.79723 76.1217C7.04188 75.9624 7.17299 75.6628 7.13379 75.3604C6.95537 74.0174 7.29059 73.0726 8.07726 72.7028C8.94639 72.287 10.2372 72.6312 11.0672 73.5005C11.1902 73.63 11.3726 73.6732 11.543 73.6111C11.8336 73.5059 12.0336 73.1131 12.0525 72.8094C12.1201 71.6527 12.627 70.8388 13.3758 70.6849C14.0733 70.5364 14.8154 71.0183 15.2898 71.9415C15.3669 72.09 15.5061 72.1777 15.6629 72.1777C15.9278 72.1777 16.1076 71.9429 16.3441 71.5096V82.1375H14.2179L13.6205 82.7341ZM77.4642 85.2824H14.8127V83.328H77.4642V85.2824ZM90.9255 85.7994H78.6591V82.7314L78.0616 82.1348H75.9354V70.4122C76.0355 70.5094 76.1395 70.5999 76.2287 70.7146C76.2936 70.7983 76.3815 70.9764 76.4815 71.1695C76.8194 71.8281 77.0114 72.1696 77.3398 72.1696C77.4966 72.1696 77.6358 72.0805 77.7129 71.9334C78.1873 71.0102 78.9321 70.5324 79.6269 70.6768C80.3743 70.832 80.8812 71.6459 80.9502 72.804C80.9691 73.1063 81.1691 73.4991 81.4597 73.6058C81.63 73.6678 81.8112 73.6246 81.9369 73.4937C82.7655 72.6258 84.055 72.2816 84.9254 72.6974C85.7121 73.0672 86.0473 74.012 85.8689 75.3564C85.8283 75.6587 85.9608 75.9584 86.2055 76.1176C86.4136 76.2526 86.6623 76.2634 86.8705 76.1365C87.6599 75.6668 88.3546 76.1649 88.6966 76.5064C89.4833 77.2865 89.9483 78.7388 89.3873 79.6567C89.2454 79.8875 89.2589 80.1453 89.4238 80.3437C89.6171 80.5772 90.0077 80.6933 90.2794 80.5947C90.5119 80.5232 91.3837 80.9214 91.9352 81.846C92.3759 82.587 92.8219 84.0771 90.9255 85.7994Z" fill="#504B75"/>
<path d="M22.3928 36.9746L21.8818 37.4848V49.7717L22.3928 50.2819H33.1102L33.6211 49.7717V37.4848L33.1102 36.9746H22.3928V36.9746ZM32.5979 49.2628H22.9037V37.9964H32.5979V49.2628Z" fill="#504B75"/>
<path d="M31.7654 48.3809L31.9357 48.2108V40.1689C31.9357 40.0744 31.8587 39.9988 31.7654 39.9988C31.6721 39.9988 31.5951 40.0758 31.5951 40.1689V43.5906H23.9095V39.22H26.8277H27.1319H29.3797C29.4743 39.22 29.55 39.1431 29.55 39.05C29.55 38.9568 29.473 38.8799 29.3797 38.8799H27.1319H26.8277H23.7392L23.5688 39.05V48.2108L23.7392 48.3809H31.7654ZM23.9095 43.932H31.5951V48.0407H23.9095V43.932Z" fill="#504B75"/>
<path d="M50.4804 77.9047L50.8211 77.5645V58.3548L50.4804 58.0146H41.7986L41.458 58.3548V77.5645L41.7986 77.9047H50.4804ZM42.1393 58.6949H50.1385V77.2244H42.1393V58.6949Z" fill="#504B75"/>
<path d="M43.3818 62.5527L43.125 62.8092V64.6233L43.3818 64.8798H48.8953L49.1521 64.6233V62.8092L48.8953 62.5527H43.3818ZM48.6385 64.3682H43.6386V63.0657H48.6385V64.3682Z" fill="#504B75"/>
<path d="M40.3295 68.2056C40.4904 68.2056 40.6526 68.1597 40.7972 68.0652C40.9878 67.9397 41.1176 67.7467 41.1635 67.524C41.2081 67.3013 41.1649 67.0745 41.0392 66.8855C40.7797 66.4928 40.2511 66.3834 39.8578 66.6426C39.4645 66.9004 39.3563 67.4308 39.6159 67.8222C39.7794 68.0706 40.0525 68.2056 40.3295 68.2056ZM40.0457 66.9274C40.2768 66.7749 40.5985 66.8369 40.754 67.0731C40.8297 67.1865 40.8553 67.3215 40.8283 67.4551C40.8013 67.5887 40.7242 67.7035 40.608 67.7804C40.3769 67.9316 40.0565 67.8708 39.8997 67.6346C39.7443 67.3998 39.8105 67.0812 40.0457 66.9274Z" fill="#504B75"/>
<path d="M59.7434 37.1074L59.2324 37.6176V49.9043L59.7434 50.4146H70.4608L70.9717 49.9043V37.6176L70.4608 37.1074H59.7434ZM69.9499 49.3941H60.2556V38.1278H69.9499V49.3941Z" fill="#504B75"/>
<path d="M69.1164 48.5127V48.5113L69.2867 48.3413V40.3007C69.2867 40.2063 69.2096 40.1307 69.1164 40.1307C69.0218 40.1307 68.9461 40.2076 68.9461 40.3007V43.7224H61.2591V39.3519H64.1787H64.4828H66.7307C66.8253 39.3519 66.901 39.2749 66.901 39.1818C66.901 39.0887 66.8239 39.0117 66.7307 39.0117H64.4828H64.1787H61.0888L60.9185 39.1818V48.3426L61.0888 48.5127H69.1164ZM61.2591 44.0612H68.9461V48.1699H61.2591V44.0612Z" fill="#504B75"/>
<path d="M41.3395 37.1074L40.8286 37.6176V49.9043L41.3395 50.4146H52.057L52.5679 49.9043V37.6176L52.057 37.1074H41.3395ZM51.5461 49.3941H41.8518V38.1278H51.5461V49.3941Z" fill="#504B75"/>
<path d="M50.7117 48.5127V48.5113L50.882 48.3413V40.3007C50.882 40.2063 50.805 40.1307 50.7117 40.1307C50.6171 40.1307 50.5414 40.2076 50.5414 40.3007V43.7224H42.8558V39.3519H45.774H46.0782H48.326C48.4206 39.3519 48.4963 39.2749 48.4963 39.1818C48.4963 39.0887 48.4193 39.0117 48.326 39.0117H46.0782H45.774H42.6854L42.5151 39.1818V48.3426L42.6854 48.5127H50.7117ZM42.8558 44.0612H50.5414V48.1699H42.8558V44.0612V44.0612Z" fill="#504B75"/>
<path d="M22.3928 57.0635L21.8818 57.5737V69.8592L22.3928 70.3694H33.1102L33.6211 69.8592V57.5737L33.1102 57.0635H22.3928ZM32.5979 69.349H22.9037V58.0839H32.5979V69.349Z" fill="#504B75"/>
<path d="M31.7654 68.4677L31.9357 68.2976V60.2558C31.9357 60.1613 31.8587 60.0857 31.7654 60.0857C31.6721 60.0857 31.5951 60.1627 31.5951 60.2558V63.6774H23.9095V59.3069H26.8277H27.1319H29.3797C29.4743 59.3069 29.55 59.23 29.55 59.1369C29.55 59.0424 29.473 58.9668 29.3797 58.9668H27.1319H26.8277H23.7392L23.5688 59.1369V68.2976L23.7392 68.4677H31.7654ZM23.9095 64.0175H31.5951V68.1262H23.9095V64.0175Z" fill="#504B75"/>
<path d="M70.3138 69.4635L70.8247 68.9533V56.6665L70.3138 56.1562H59.5964L59.0854 56.6665V68.9533L59.5964 69.4635H70.3138ZM60.1087 57.1767H69.8029V68.4431H60.1087V57.1767Z" fill="#504B75"/>
<path d="M68.969 59.1781C68.8744 59.1781 68.7987 59.2551 68.7987 59.3482V62.7698H61.1131V58.4007H64.0314H64.3355H66.5847C66.6793 58.4007 66.755 58.3237 66.755 58.2306C66.755 58.1361 66.6779 58.0605 66.5847 58.0605H64.3355H64.0314H60.9428L60.7725 58.2306V67.3899L60.9428 67.5599H68.969L69.1393 67.3899V59.3482C69.1393 59.2537 69.0636 59.1781 68.969 59.1781ZM68.7987 67.2185H61.1131V63.1099H68.7987V67.2185Z" fill="#504B75"/>
<path d="M33.0736 32.8417L33.5845 32.3315V20.0434L33.0736 19.5332H22.3561L21.8452 20.0434V32.3301L22.3561 32.8417H33.0736ZM22.8671 20.555H32.5613V31.8213H22.8671V20.555Z" fill="#504B75"/>
<path d="M31.7292 22.5564C31.6345 22.5564 31.5589 22.6334 31.5589 22.7265V26.148H23.8719V21.7776H26.7915H27.0956H29.3435C29.4381 21.7776 29.5138 21.7007 29.5138 21.6076C29.5138 21.5144 29.4367 21.4375 29.3435 21.4375H27.0956H26.7915H23.7016L23.5312 21.6076V30.7682L23.7016 30.9382H31.7292L31.8995 30.7682V22.7265C31.8995 22.632 31.8224 22.5564 31.7292 22.5564ZM31.5589 30.5981H23.8719V26.4895H31.5589V30.5981Z" fill="#504B75"/>
<path d="M70.4233 32.9733L70.9342 32.4631V20.1762L70.4233 19.666H59.7072L59.1963 20.1762V32.4631L59.7072 32.9733H70.4233ZM60.2182 20.6864H69.911V31.9529H60.2182V20.6864Z" fill="#504B75"/>
<path d="M69.0784 22.6883C68.9838 22.6883 68.9081 22.7652 68.9081 22.8584V26.28H61.2225V21.9095H64.1407H64.4449H66.694C66.7887 21.9095 66.8644 21.8325 66.8644 21.7394C66.8644 21.6449 66.7873 21.5693 66.694 21.5693H64.4449H64.1407H61.0521L60.8818 21.7394V30.9002L61.0521 31.0703H69.0784L69.2487 30.9002V22.8597C69.2487 22.7652 69.173 22.6883 69.0784 22.6883ZM68.9081 30.7288H61.2225V26.6201H68.9081V30.7288Z" fill="#504B75"/>
<path d="M52.0204 32.9733L52.5313 32.4631V20.1762L52.0204 19.666H41.3029L40.792 20.1762V32.4631L41.3029 32.9733H52.0204ZM41.8152 20.6864H51.5094V31.9529H41.8152V20.6864V20.6864Z" fill="#504B75"/>
<path d="M50.6755 22.6883C50.5808 22.6883 50.5052 22.7652 50.5052 22.8584V26.28H42.8182V21.9095H45.7378H46.0419H48.2898C48.3844 21.9095 48.4601 21.8325 48.4601 21.7394C48.4601 21.6449 48.383 21.5693 48.2898 21.5693H46.0419H45.7378H42.6478L42.4775 21.7394V30.9002L42.6478 31.0703H50.6755L50.8458 30.9002V22.8597C50.8471 22.7652 50.7701 22.6883 50.6755 22.6883ZM50.5065 30.7288H42.8195V26.6201H50.5065V30.7288Z" fill="#504B75"/>
<path d="M37.8625 7.39062C38.022 7.57149 38.2139 7.71051 38.437 7.81039C38.66 7.91027 38.9019 7.95886 39.1601 7.95886C39.4183 7.95886 39.6575 7.90892 39.8779 7.81039C40.0982 7.71186 40.2888 7.57149 40.4523 7.39062C40.6159 7.20976 40.7429 6.99515 40.8335 6.74545C40.9241 6.4971 40.9687 6.2204 40.9687 5.92076C40.9687 5.62786 40.9241 5.35927 40.8335 5.11361C40.7429 4.86931 40.6159 4.6628 40.4523 4.49543C40.2888 4.32807 40.0968 4.19579 39.8779 4.10266C39.6575 4.00818 39.4196 3.96094 39.1601 3.96094C38.9033 3.96094 38.66 4.00818 38.437 4.10266C38.2139 4.19714 38.022 4.32807 37.8625 4.49543C37.7043 4.6628 37.5786 4.86931 37.4881 5.11361C37.3975 5.35927 37.3516 5.62786 37.3516 5.92076C37.3516 6.22175 37.3975 6.4971 37.4881 6.74545C37.5773 6.9938 37.703 7.20976 37.8625 7.39062ZM38.1288 5.34982C38.1855 5.19325 38.2626 5.06502 38.3586 4.96379C38.4532 4.86526 38.5654 4.78833 38.7019 4.73029C38.8411 4.6709 38.9939 4.64121 39.1601 4.64121C39.3264 4.64121 39.4723 4.66955 39.6062 4.72759C39.7454 4.78698 39.8616 4.86661 39.963 4.97054C40.0603 5.07042 40.1347 5.1946 40.1928 5.35117C40.2536 5.51719 40.2861 5.7102 40.2861 5.92076C40.2861 6.14211 40.255 6.34188 40.1914 6.51329C40.1306 6.68066 40.0509 6.81833 39.9454 6.93441C39.8454 7.04509 39.7319 7.12877 39.5981 7.18816C39.4642 7.2489 39.3223 7.27724 39.1601 7.27724C38.9966 7.27724 38.8506 7.24755 38.7154 7.18816C38.5789 7.12742 38.468 7.04779 38.3734 6.93981C38.2721 6.82373 38.1896 6.68066 38.1301 6.51599C38.0652 6.33918 38.0342 6.13942 38.0342 5.92076C38.0342 5.71155 38.0652 5.51854 38.1288 5.34982Z" fill="#504B75"/>
</svg>
