<svg width="64" height="64" viewBox="0 0 64 64" fill="none" xmlns="http://www.w3.org/2000/svg">
<g clip-path="url(#clip0)">
<path d="M31.9997 44.8975C28.4993 44.8975 25.6514 47.7454 25.6514 51.2458C25.6514 54.7463 28.4993 57.5942 31.9997 57.5942C35.5002 57.5942 38.3481 54.7463 38.3481 51.2458C38.3481 47.7454 35.5003 44.8975 31.9997 44.8975ZM31.9997 55.5895C29.6047 55.5895 27.6561 53.641 27.6561 51.2458C27.6561 48.8507 29.6047 46.9022 31.9997 46.9022C34.3948 46.9022 36.3434 48.8507 36.3434 51.2458C36.3434 53.641 34.3949 55.5895 31.9997 55.5895Z" fill="#504B75"/>
<path d="M18.4386 37.6845C18.0472 38.0761 18.0472 38.7106 18.4386 39.1021C18.8299 39.4933 19.4646 39.4935 19.8561 39.1021C26.5524 32.406 37.4476 32.406 44.1439 39.1021C44.3396 39.2977 44.5962 39.3956 44.8526 39.3956C45.1091 39.3956 45.3657 39.2977 45.5614 39.1021C45.9529 38.7105 45.9529 38.0759 45.5614 37.6845C38.0837 30.2067 25.9163 30.2067 18.4386 37.6845Z" fill="#504B75"/>
<path d="M31.9997 19.2363C23.4498 19.2363 15.4115 22.5658 9.36586 28.6115C8.9744 29.0031 8.9744 29.6376 9.36586 30.0291C9.75732 30.4204 10.392 30.4204 10.7834 30.0291C16.4504 24.3619 23.9852 21.2409 31.9997 21.2409C40.0143 21.2409 47.549 24.3619 53.2161 30.0291C53.4118 30.2248 53.6684 30.3226 53.9249 30.3226C54.1814 30.3226 54.438 30.2248 54.6336 30.0291C55.0251 29.6375 55.0251 29.0029 54.6336 28.6115C48.588 22.5658 40.5497 19.2363 31.9997 19.2363Z" fill="#504B75"/>
<path d="M63.7063 19.5395C55.2372 11.0705 43.9771 6.40625 31.9999 6.40625C20.0227 6.40625 8.76272 11.0705 0.293595 19.5395C-0.0978651 19.9311 -0.0978651 20.5657 0.293595 20.9571C0.685056 21.3484 1.31976 21.3484 1.71109 20.9571C9.80158 12.8666 20.5584 8.411 31.9999 8.411C43.4414 8.411 54.1982 12.8666 62.2887 20.9571C62.4844 21.1528 62.741 21.2506 62.9975 21.2506C63.2539 21.2506 63.5105 21.1528 63.7062 20.9571C64.0978 20.5657 64.0978 19.9311 63.7063 19.5395Z" fill="#504B75"/>
</g>
<defs>
<clipPath id="clip0">
<rect width="64" height="64" fill="white"/>
</clipPath>
</defs>
</svg>
