<svg width="94" height="94" viewBox="0 0 94 94" fill="none" xmlns="http://www.w3.org/2000/svg">
<path d="M58.4277 36.8102C58.4277 37.0748 58.6435 37.2906 58.9081 37.2906C59.1728 37.2906 59.3886 37.0748 59.3886 36.8102V29.3759C59.3886 29.1113 59.1728 28.8955 58.9081 28.8955C58.6435 28.8955 58.4277 29.1113 58.4277 29.3759V36.8102Z" fill="#504B75"/>
<path d="M59.3886 27.1631V22.496C59.3886 22.2314 59.1728 22.0156 58.9081 22.0156C58.6435 22.0156 58.4277 22.2314 58.4277 22.496V27.1631C58.4277 27.4278 58.6422 27.6435 58.9081 27.6435C59.1741 27.6435 59.3886 27.4278 59.3886 27.1631Z" fill="#504B75"/>
<path d="M62.4281 29.3775V22.3369C62.4281 22.0722 62.2123 21.8564 61.9477 21.8564C61.6831 21.8564 61.4673 22.0722 61.4673 22.3369V29.3775C61.4673 29.6422 61.6817 29.8579 61.9477 29.8579C62.2137 29.8579 62.4281 29.6422 62.4281 29.3775Z" fill="#504B75"/>
<path d="M61.4673 39.9599C61.4673 40.2246 61.6831 40.4404 61.9477 40.4404C62.2123 40.4404 62.4281 40.2246 62.4281 39.9599V31.8662C62.4281 31.6015 62.2123 31.3857 61.9477 31.3857C61.6831 31.3857 61.4673 31.6015 61.4673 31.8662V39.9599Z" fill="#504B75"/>
<path d="M64.7964 36.8101C64.7964 37.0747 65.0122 37.2905 65.2768 37.2905C65.5414 37.2905 65.7572 37.0747 65.7572 36.8101V31.8662C65.7572 31.6015 65.5414 31.3857 65.2768 31.3857C65.0122 31.3857 64.7964 31.6015 64.7964 31.8662V36.8101Z" fill="#504B75"/>
<path d="M65.2768 29.8583C65.5428 29.8583 65.7572 29.6426 65.7572 29.3779V22.496C65.7572 22.2314 65.5414 22.0156 65.2768 22.0156C65.0122 22.0156 64.7964 22.2314 64.7964 22.496V29.3779C64.7964 29.6426 65.0122 29.8583 65.2768 29.8583Z" fill="#504B75"/>
<path d="M68.7973 25.978V22.3369C68.7973 22.0722 68.5815 21.8564 68.3168 21.8564C68.0522 21.8564 67.8364 22.0722 67.8364 22.3369V25.978C67.8364 26.2426 68.0508 26.4584 68.3168 26.4584C68.5828 26.4584 68.7973 26.2426 68.7973 25.978Z" fill="#504B75"/>
<path d="M67.8364 37.3363C67.8364 37.6009 68.0522 37.8167 68.3168 37.8167C68.5815 37.8167 68.7973 37.6009 68.7973 37.3363V29.2412C68.7973 28.9765 68.5815 28.7607 68.3168 28.7607C68.0522 28.7607 67.8364 28.9765 67.8364 29.2412V37.3363Z" fill="#504B75"/>
<path d="M93.5196 81.5516H74.2392C83.0862 79.3354 88.8362 72.6218 88.8362 63.73V54.1543C90.5434 54.0308 91.8979 52.6167 91.8979 50.8796C91.8979 49.0611 90.4186 47.5818 88.6001 47.5818H84.1881V16.5963C84.1881 16.5461 84.1827 16.4959 84.1705 16.4457C83.0006 11.343 78.3227 7.72358 73.1616 7.88508C68.2543 8.01808 63.9903 11.5031 62.8069 16.2503H58.2511C57.1559 16.2503 56.2656 17.1405 56.2656 18.2371C56.2656 19.3323 57.1559 20.2225 58.2511 20.2225H68.7497C69.8449 20.2225 70.7351 19.3323 70.7351 18.2371C70.7351 17.1405 69.8449 16.2503 68.7497 16.2503H64.2264C65.3786 12.2563 69.0075 9.34397 73.1969 9.23133C77.712 9.09019 81.786 12.2332 82.8392 16.6723V47.5818H31.8852V46.3414C31.8852 45.9696 31.5839 45.6683 31.2121 45.6683H14.0148C13.643 45.6683 13.3417 45.9696 13.3417 46.3414V47.5818H3.29777C1.47925 47.5818 0 49.0611 0 50.8796C0 52.6167 1.35575 54.0308 3.06163 54.1543V63.73C3.06163 72.6218 8.81169 79.3354 17.6587 81.5516H0.671768C0.405775 81.5516 0.191352 81.7673 0.191352 82.032V85.6405C0.191352 85.9052 0.407132 86.1209 0.671768 86.1209H93.5196C93.7856 86.1209 94 85.9052 94 85.6405V82.032C94 81.7673 93.7856 81.5516 93.5196 81.5516ZM68.751 17.5965C69.1039 17.5965 69.3902 17.8842 69.3902 18.2371C69.3902 18.5899 69.1039 18.8763 68.751 18.8763H58.2525C57.8996 18.8763 57.6133 18.5899 57.6133 18.2371C57.6133 17.8842 57.8996 17.5965 58.2525 17.5965H68.751ZM31.8839 48.9294H88.6001C89.6763 48.9294 90.5516 49.8048 90.5516 50.8809C90.5516 51.9571 89.6763 52.8325 88.6001 52.8325C88.4874 52.8325 88.3857 52.8677 88.292 52.9166C88.2486 52.9085 88.2092 52.8908 88.1631 52.8908H32.2231C32.0969 52.8908 31.9856 52.9342 31.8839 52.9953V48.9294ZM14.688 47.0159H30.539V64.0177C30.5349 64.0177 30.5308 64.015 30.5268 64.015H14.688V47.0159ZM14.688 64.9772H30.5268C30.5308 64.9772 30.5349 64.9745 30.539 64.9745V67.1038H14.688V64.9772ZM1.34625 50.8796C1.34625 49.8034 2.22158 48.9281 3.29777 48.9281H13.3417V52.8311H3.29777C2.22158 52.8325 1.34625 51.9558 1.34625 50.8796ZM4.40788 63.73V54.2371H13.3417V67.7783C13.3417 68.1501 13.643 68.4514 14.0148 68.4514H31.2121C31.5839 68.4514 31.8852 68.1501 31.8852 67.7783V54.1326C31.9857 54.1923 32.0969 54.2371 32.2245 54.2371H87.49V63.73C87.49 73.8948 79.312 80.9938 67.6029 80.9938H24.2949C12.5858 80.9938 4.40788 73.8948 4.40788 63.73ZM93.0392 85.1601H93.0378H1.15354V82.5137H93.0392V85.1601Z" fill="#504B75"/>
</svg>
