<svg width="26" height="26" viewBox="0 0 26 26" fill="none" xmlns="http://www.w3.org/2000/svg">
<path d="M23.8333 7.00791V1.3C23.8333 0.583273 23.2501 0 22.5333 0H3.4667C2.74998 0 2.1667 0.583273 2.1667 1.3V7.00791C1.66239 7.18682 1.30002 7.66853 1.30002 8.23337V10.8334V24.7C1.30002 25.4167 1.88329 26 2.60002 26H23.4C24.1167 26 24.7 25.4167 24.7 24.7V10.8333V8.23332C24.7 7.66853 24.3377 7.18682 23.8333 7.00791ZM3.03333 1.3C3.03333 1.06082 3.22747 0.866684 3.46665 0.866684H22.5333C22.7725 0.866684 22.9667 1.06082 22.9667 1.3V6.93332H22.1V2.6C22.1 2.12205 21.7113 1.73332 21.2333 1.73332H4.7667C4.28875 1.73332 3.90002 2.122 3.90002 2.6V6.93332H3.03333V1.3ZM14.9713 6.93332C14.6491 6.03754 14.6564 5.05157 14.9972 4.254C16.5295 3.79295 18.1359 3.79163 19.6677 4.25354C20.009 5.125 20.0194 6.11173 19.7004 6.93327H14.9713V6.93332ZM20.4434 3.86014L20.3844 3.72623C20.335 3.61314 20.2392 3.52645 20.1222 3.48832C18.2979 2.89204 16.3696 2.89204 14.5444 3.48832C14.4269 3.52645 14.3312 3.61354 14.2818 3.72709L14.2255 3.85663C13.8093 4.78461 13.7534 5.88011 14.0603 6.93332H12.3818C12.6707 5.95974 12.615 4.84722 12.21 3.86014L12.1511 3.72623C12.1016 3.61314 12.0059 3.52645 11.8889 3.48832C10.0646 2.89204 8.13619 2.89204 6.31101 3.48832C6.19355 3.52645 6.09783 3.61354 6.04842 3.72709L5.9921 3.85663C5.57595 4.78461 5.51999 5.88011 5.82696 6.93332H4.76665V2.6H21.2333V6.93332H20.6152C20.904 5.95974 20.8484 4.84727 20.4434 3.86014ZM6.73798 6.93332C6.41572 6.03754 6.42303 5.05157 6.76388 4.254C8.29569 3.79295 9.90206 3.79163 11.4343 4.25354C11.7756 5.125 11.786 6.11173 11.467 6.93327H6.73798V6.93332ZM2.1667 8.23332C2.1667 7.99414 2.36084 7.8 2.60002 7.8H4.33333H21.6667H23.4C23.6392 7.8 23.8333 7.99414 23.8333 8.23332V10.4H2.1667V8.23332ZM23.8333 24.7C23.8333 24.9392 23.6392 25.1333 23.4 25.1333H2.60002C2.36084 25.1333 2.1667 24.9392 2.1667 24.7V11.2667H23.8334V24.7H23.8333Z" fill="#564A75"/>
</svg>
