<svg width="19" height="19" viewBox="0 0 19 19" fill="none" xmlns="http://www.w3.org/2000/svg">
<g clip-path="url(#clip0)">
<path d="M13.4969 0H5.00953C2.24723 0 0 2.24723 0 5.00953V13.4971C0 16.2592 2.24723 18.5065 5.00953 18.5065H13.4971C16.2592 18.5065 18.5065 16.2592 18.5065 13.4971V5.00953C18.5065 2.24723 16.2592 0 13.4969 0V0ZM9.25323 14.3134C6.46297 14.3134 4.19301 12.0435 4.19301 9.25323C4.19301 6.46297 6.46297 4.19301 9.25323 4.19301C12.0435 4.19301 14.3134 6.46297 14.3134 9.25323C14.3134 12.0435 12.0435 14.3134 9.25323 14.3134ZM14.4345 5.38637C13.6099 5.38637 12.9392 4.71571 12.9392 3.89114C12.9392 3.06657 13.6099 2.39576 14.4345 2.39576C15.259 2.39576 15.9298 3.06657 15.9298 3.89114C15.9298 4.71571 15.259 5.38637 14.4345 5.38637Z" fill="white"/>
<path d="M9.25312 5.27832C7.06124 5.27832 5.27783 7.06159 5.27783 9.25361C5.27783 11.4455 7.06124 13.2289 9.25312 13.2289C11.4451 13.2289 13.2284 11.4455 13.2284 9.25361C13.2284 7.06159 11.4451 5.27832 9.25312 5.27832Z" fill="white"/>
<path d="M14.4342 3.48145C14.208 3.48145 14.0239 3.66556 14.0239 3.89175C14.0239 4.11794 14.208 4.30206 14.4342 4.30206C14.6606 4.30206 14.8447 4.11808 14.8447 3.89175C14.8447 3.66542 14.6606 3.48145 14.4342 3.48145Z" fill="white"/>
</g>
<defs>
<clipPath id="clip0">
<rect width="18.5065" height="18.5065" fill="white"/>
</clipPath>
</defs>
</svg>
