<svg width="19" height="20" viewBox="0 0 19 20" fill="none" xmlns="http://www.w3.org/2000/svg">
<g clip-path="url(#clip0)">
<path d="M13.4969 0.662109H5.00953C2.24723 0.662109 0 2.90934 0 5.67164V14.1592C0 16.9213 2.24723 19.1686 5.00953 19.1686H13.4971C16.2592 19.1686 18.5065 16.9213 18.5065 14.1592V5.67164C18.5065 2.90934 16.2592 0.662109 13.4969 0.662109V0.662109ZM9.25323 14.9756C6.46297 14.9756 4.19301 12.7056 4.19301 9.91534C4.19301 7.12508 6.46297 4.85512 9.25323 4.85512C12.0435 4.85512 14.3134 7.12508 14.3134 9.91534C14.3134 12.7056 12.0435 14.9756 9.25323 14.9756ZM14.4345 6.04848C13.6099 6.04848 12.9392 5.37782 12.9392 4.55325C12.9392 3.72868 13.6099 3.05787 14.4345 3.05787C15.259 3.05787 15.9298 3.72868 15.9298 4.55325C15.9298 5.37782 15.259 6.04848 14.4345 6.04848Z" fill="#474C65"/>
<path d="M9.25312 5.94043C7.06124 5.94043 5.27783 7.7237 5.27783 9.91572C5.27783 12.1076 7.06124 13.891 9.25312 13.891C11.4451 13.891 13.2284 12.1076 13.2284 9.91572C13.2284 7.7237 11.4451 5.94043 9.25312 5.94043Z" fill="#474C65"/>
<path d="M14.4342 4.14355C14.208 4.14355 14.0239 4.32767 14.0239 4.55386C14.0239 4.78005 14.208 4.96417 14.4342 4.96417C14.6606 4.96417 14.8447 4.78019 14.8447 4.55386C14.8447 4.32753 14.6606 4.14355 14.4342 4.14355Z" fill="#474C65"/>
</g>
<defs>
<clipPath id="clip0">
<rect width="18.5065" height="18.5065" fill="white" transform="translate(0 0.662109)"/>
</clipPath>
</defs>
</svg>
