<svg width="23" height="23" viewBox="0 0 23 23" fill="none" xmlns="http://www.w3.org/2000/svg">
<path d="M10.9896 14.3891C11.1355 14.5173 11.3175 14.5816 11.4998 14.5816C11.682 14.5816 11.8641 14.5173 12.0099 14.3891C12.1946 14.2264 16.5317 10.3605 16.5317 6.35122C16.5317 3.57557 14.2745 1.31738 11.4998 1.31738C8.72511 1.31738 6.46777 3.57557 6.46777 6.35122C6.46762 10.3605 10.8049 14.2264 10.9896 14.3891ZM11.4998 5.03596C12.2201 5.03596 12.8043 5.62467 12.8043 6.35122C12.8043 7.0777 12.2201 7.66649 11.4998 7.66649C10.7792 7.66649 10.1951 7.07762 10.1951 6.35122C10.1951 5.62467 10.7792 5.03596 11.4998 5.03596Z" fill="#4A435D"/>
<path d="M21.1692 14.3869L20.5863 12.3442C20.4917 12.0127 20.1888 11.7842 19.8442 11.7842H15.6842C15.5338 12.0078 15.3751 12.2322 15.2073 12.4578C14.0412 14.0245 12.8558 15.0842 12.7244 15.2C12.386 15.498 11.9513 15.6621 11.5002 15.6621C11.0494 15.6621 10.6148 15.4982 10.2759 15.1999C10.1446 15.0842 8.95907 14.0243 7.79312 12.4578C7.6253 12.2322 7.46662 12.0077 7.31623 11.7842H3.15608C2.81147 11.7842 2.5086 12.0127 2.41396 12.3442L1.71924 14.7787L17.2485 17.6231L21.1692 14.3869Z" fill="#4A435D"/>
<path d="M22.9703 20.6997L21.4811 15.4805L14.0923 21.6834H22.2283C22.4704 21.6834 22.6985 21.5698 22.8443 21.3765C22.9901 21.1831 23.0367 20.9325 22.9703 20.6997Z" fill="#4A435D"/>
<path d="M3.77855 16.2541L1.42123 15.8223L0.029611 20.6994C-0.0367562 20.9322 0.00978605 21.1828 0.155686 21.3761C0.301508 21.5694 0.529572 21.683 0.771731 21.683H3.77855V16.2541Z" fill="#4A435D"/>
<path d="M4.85938 16.4521V21.6831H12.412L16.1744 18.5246L4.85938 16.4521Z" fill="#4A435D"/>
</svg>
