<svg width="17" height="18" viewBox="0 0 17 18" fill="none" xmlns="http://www.w3.org/2000/svg">
<path d="M16.5411 13.2018L14.2109 10.8749C13.3787 10.0439 11.9639 10.3763 11.631 11.4566C11.3813 12.2046 10.5491 12.6201 9.80013 12.4538C8.13569 12.0383 5.88871 9.87765 5.4726 8.13249C5.22294 7.38453 5.72227 6.55349 6.47126 6.30422C7.55314 5.97181 7.88603 4.55905 7.05381 3.72802L4.72361 1.40114C4.05783 0.819413 3.05917 0.819413 2.47662 1.40114L0.895408 2.98009C-0.685805 4.64216 1.06185 9.04662 4.97327 12.9525C8.88469 16.8583 13.2954 18.6866 14.9599 17.0245L16.5411 15.4456C17.1237 14.7807 17.1237 13.7835 16.5411 13.2018Z" fill="#474C65"/>
</svg>
