<svg width="20" height="20" viewBox="0 0 20 20" fill="none" xmlns="http://www.w3.org/2000/svg">
<path d="M18.8856 14.406L16.2285 11.7545C15.2795 10.8075 13.6663 11.1863 13.2867 12.4174C13.002 13.2697 12.0531 13.7431 11.199 13.5537C9.30107 13.0802 6.73888 10.6181 6.2644 8.62949C5.97971 7.77719 6.54909 6.83022 7.40315 6.54617C8.6368 6.16738 9.01638 4.55754 8.06742 3.61057L5.41034 0.959071C4.65117 0.296195 3.51242 0.296195 2.84815 0.959071L1.04513 2.75831C-0.757897 4.65224 1.23492 9.67115 5.69503 14.1219C10.1551 18.5726 15.1846 20.656 17.0825 18.762L18.8856 16.9628C19.5499 16.2052 19.5499 15.0689 18.8856 14.406Z" fill="white"/>
</svg>
