<svg width="26" height="26" viewBox="0 0 26 26" fill="none" xmlns="http://www.w3.org/2000/svg">
<g clip-path="url(#clip0)">
<path d="M25.7683 18.8139C25.6984 18.6969 25.2661 17.7576 23.186 15.8269C21.0083 13.8053 21.3008 14.1336 23.9238 10.6379C25.5213 8.50901 26.1599 7.20891 25.96 6.65312C25.7699 6.12333 24.5949 6.26309 24.5949 6.26309L20.6881 6.28585C20.6881 6.28585 20.3989 6.24684 20.1827 6.37523C19.9731 6.50199 19.8382 6.79451 19.8382 6.79451C19.8382 6.79451 19.219 8.44238 18.3935 9.84324C16.653 12.7993 15.9558 12.9553 15.6714 12.7717C15.01 12.3443 15.1757 11.0523 15.1757 10.1358C15.1757 7.27067 15.6096 6.07621 14.329 5.76743C13.9033 5.66505 13.5912 5.5968 12.504 5.58542C11.1097 5.57079 9.92822 5.59029 9.2603 5.91694C8.81501 6.13471 8.47211 6.62062 8.68176 6.64825C8.94015 6.68238 9.52519 6.80589 9.83559 7.22842C10.237 7.77283 10.2224 8.99817 10.2224 8.99817C10.2224 8.99817 10.4531 12.3703 9.68445 12.7896C9.15629 13.0772 8.43311 12.4906 6.88112 9.80748C6.08644 8.43426 5.48514 6.91477 5.48514 6.91477C5.48514 6.91477 5.36976 6.632 5.16337 6.48086C4.9131 6.29722 4.56208 6.23872 4.56208 6.23872L0.847051 6.26147C0.847051 6.26147 0.289634 6.27772 0.0848691 6.51986C-0.0971444 6.73601 0.070243 7.18129 0.070243 7.18129C0.070243 7.18129 2.97921 13.9857 6.2717 17.4163C9.2928 20.5609 12.7218 20.3545 12.7218 20.3545H14.2754C14.2754 20.3545 14.7451 20.3025 14.984 20.0441C15.205 19.8069 15.1969 19.3616 15.1969 19.3616C15.1969 19.3616 15.166 17.2765 16.1346 16.9694C17.0885 16.6671 18.3138 18.9845 19.6123 19.8767C20.5939 20.5512 21.3398 20.4033 21.3398 20.4033L24.8127 20.3545C24.8127 20.3545 26.6296 20.2424 25.7683 18.8139Z" fill="white"/>
</g>
<defs>
<clipPath id="clip0">
<rect width="26" height="26" fill="white"/>
</clipPath>
</defs>
</svg>
