<svg width="32" height="32" viewBox="0 0 32 32" fill="none" xmlns="http://www.w3.org/2000/svg">
<g clip-path="url(#clip0)">
<path d="M31.7164 23.0334C31.6309 22.8902 31.1016 21.7402 28.5549 19.3766C25.8889 16.9015 26.247 17.3034 29.4582 13.0238C31.414 10.4174 32.1959 8.82574 31.9512 8.1453C31.7184 7.49669 30.2799 7.66779 30.2799 7.66779L25.4969 7.69565C25.4969 7.69565 25.1428 7.6479 24.8782 7.80508C24.6215 7.96026 24.4564 8.31839 24.4564 8.31839C24.4564 8.31839 23.6983 10.3358 22.6876 12.0509C20.5568 15.6699 19.7032 15.8609 19.3551 15.6361C18.5453 15.1129 18.7482 13.5311 18.7482 12.409C18.7482 8.90134 19.2795 7.43899 17.7117 7.06097C17.1904 6.93562 16.8084 6.85206 15.4773 6.83813C13.7703 6.82023 12.3238 6.8441 11.5061 7.24401C10.961 7.51062 10.5412 8.10551 10.7978 8.13933C11.1142 8.18111 11.8304 8.33232 12.2104 8.84961C12.7019 9.51613 12.6839 11.0163 12.6839 11.0163C12.6839 11.0163 12.9665 15.1447 12.0254 15.658C11.3788 16.0102 10.4934 15.2919 8.59334 12.0071C7.62042 10.3259 6.88427 8.46562 6.88427 8.46562C6.88427 8.46562 6.74301 8.11943 6.49033 7.9344C6.18394 7.70958 5.75418 7.63795 5.75418 7.63795L1.20597 7.6658C1.20597 7.6658 0.523537 7.6857 0.272848 7.98215C0.0500138 8.24677 0.254942 8.79192 0.254942 8.79192C0.254942 8.79192 3.81632 17.1224 7.84724 21.3224C11.5459 25.1723 15.7439 24.9196 15.7439 24.9196H17.646C17.646 24.9196 18.221 24.8559 18.5135 24.5396C18.784 24.2491 18.7741 23.7039 18.7741 23.7039C18.7741 23.7039 18.7363 21.1513 19.9221 20.7753C21.09 20.4052 22.5901 23.2423 24.1798 24.3346C25.3815 25.1603 26.2948 24.9793 26.2948 24.9793L30.5465 24.9196C30.5465 24.9196 32.7709 24.7823 31.7164 23.0334Z" fill="#474C65"/>
</g>
<defs>
<clipPath id="clip0">
<rect width="31.8312" height="31.8312" fill="white" transform="translate(0.168945)"/>
</clipPath>
</defs>
</svg>
