<svg width="17" height="18" viewBox="0 0 17 18" fill="none" xmlns="http://www.w3.org/2000/svg">
<path d="M8.38508 0.964844H8.38091C3.77758 0.964844 0.0341797 4.70396 0.0341797 9.30178C0.0341797 11.1255 0.622771 12.8158 1.62359 14.1883L0.583114 17.2854L3.79219 16.261C5.11235 17.1343 6.68714 17.6387 8.38508 17.6387C12.9884 17.6387 16.7318 13.8986 16.7318 9.30178C16.7318 4.705 12.9884 0.964844 8.38508 0.964844Z" fill="#4CAF50"/>
<path d="M13.2429 12.737C13.0415 13.305 12.2421 13.776 11.6045 13.9136C11.1683 14.0063 10.5985 14.0803 8.68032 13.2862C6.22681 12.2712 4.64679 9.78159 4.52365 9.62006C4.40572 9.45853 3.53223 8.30178 3.53223 7.10543C3.53223 5.90908 4.14065 5.32654 4.38589 5.07643C4.58731 4.87113 4.92022 4.77734 5.23956 4.77734C5.34288 4.77734 5.43576 4.78255 5.51925 4.78672C5.76449 4.79714 5.88764 4.81173 6.0494 5.19836C6.25081 5.68294 6.7413 6.87929 6.79975 7.00226C6.85923 7.12523 6.91872 7.29197 6.83523 7.4535C6.75696 7.62024 6.68808 7.69423 6.56494 7.83596C6.44179 7.97768 6.32491 8.08606 6.20176 8.23821C6.08905 8.37056 5.96173 8.51229 6.10366 8.75719C6.24559 8.99687 6.73609 9.79618 7.45826 10.4381C8.3902 11.2666 9.14576 11.5313 9.41606 11.6439C9.61747 11.7272 9.8575 11.7074 10.0046 11.5511C10.1915 11.35 10.4221 11.0165 10.6569 10.6882C10.8239 10.4527 11.0347 10.4235 11.2559 10.5069C11.4813 10.5851 12.6742 11.1739 12.9194 11.2958C13.1647 11.4188 13.3264 11.4771 13.3859 11.5803C13.4444 11.6835 13.4444 12.168 13.2429 12.737Z" fill="#FAFAFA"/>
</svg>
